<svg xmlns="http://www.w3.org/2000/svg" viewBox="0 0 960 420" font-family="Segoe UI, Helvetica, Arial, sans-serif">
  <defs>
    <marker id="ah" viewBox="0 0 10 10" refX="10" refY="5" markerWidth="7" markerHeight="7" orient="auto">
      <path d="M 0 1 L 10 5 L 0 9 z" fill="#475569"/>
    </marker>
  </defs>

  <rect width="960" height="420" fill="#f8fafc" rx="6"/>
  <text x="480" y="24" text-anchor="middle" fill="#1e293b" font-size="15" font-weight="700">Dual Mode — akamai_siem/raw + akamai_siem/otel (shared poller)</text>

  <!-- SIEM API -->
  <rect x="20" y="115" width="110" height="80" rx="8" fill="#1e3a5f"/>
  <text x="75" y="143" text-anchor="middle" fill="white" font-weight="700" font-size="11">SIEM API</text>
  <text x="75" y="159" text-anchor="middle" fill="#94b8d6" font-size="8">NDJSON stream</text>
  <text x="75" y="175" text-anchor="middle" fill="#c4b5fd" font-size="8">EdgeGrid signed</text>

  <!-- Arrow: API → Shared Receiver -->
  <line x1="130" y1="155" x2="168" y2="155" stroke="#2563eb" stroke-width="2" marker-end="url(#ah)"/>
  <text x="150" y="147" text-anchor="middle" fill="#2563eb" font-size="7">1 conn</text>

  <!-- Shared Receiver -->
  <rect x="170" y="50" width="280" height="230" rx="10" fill="#0f172a" stroke="#7c3aed" stroke-width="2"/>
  <text x="310" y="72" text-anchor="middle" fill="#c4b5fd" font-size="11" font-weight="700">Shared Receiver</text>

  <rect x="186" y="82" width="248" height="36" rx="6" fill="#2563eb"/>
  <text x="310" y="98" text-anchor="middle" fill="white" font-weight="700" font-size="10">Single Poller + Single Cursor</text>
  <text x="310" y="112" text-anchor="middle" fill="#93c5fd" font-size="8">1 API connection, 1 cursor file</text>

  <rect x="186" y="126" width="248" height="20" rx="4" fill="#4f46e5"/>
  <text x="310" y="140" text-anchor="middle" fill="white" font-weight="600" font-size="9">broadcast events → parallel goroutines</text>

  <!-- Goroutine 1: ECS -->
  <rect x="186" y="156" width="118" height="62" rx="6" fill="#059669"/>
  <text x="245" y="172" text-anchor="middle" fill="white" font-weight="700" font-size="10">goroutine 1</text>
  <text x="245" y="186" text-anchor="middle" fill="#a7f3d0" font-size="8">Raw: Body = raw JSON</text>
  <text x="245" y="198" text-anchor="middle" fill="#a7f3d0" font-size="7">x-elastic-mapping-mode: ecs</text>
  <text x="245" y="212" text-anchor="middle" fill="#d1fae5" font-size="7">~0ms (free)</text>

  <!-- Goroutine 2: OTel -->
  <rect x="316" y="156" width="118" height="62" rx="6" fill="#0284c7"/>
  <text x="375" y="172" text-anchor="middle" fill="white" font-weight="700" font-size="10">goroutine 2</text>
  <text x="375" y="186" text-anchor="middle" fill="#bae6fd" font-size="8">OTel: 30+ semconv attrs</text>
  <text x="375" y="198" text-anchor="middle" fill="#bae6fd" font-size="7">no mapping mode set</text>
  <text x="375" y="212" text-anchor="middle" fill="#e0f2fe" font-size="7">~12ms / 1k batch</text>

  <!-- Slowest wins bar -->
  <rect x="186" y="228" width="248" height="22" rx="4" fill="#dc2626"/>
  <text x="310" y="243" text-anchor="middle" fill="white" font-weight="700" font-size="8">SLOWEST WINS — cursor advances after BOTH succeed</text>

  <!-- Arrow: ECS goroutine → Pipeline 1 (top) -->
  <polyline points="304,187 460,187 460,100 488,100" fill="none" stroke="#059669" stroke-width="2" marker-end="url(#ah)"/>

  <!-- Arrow: OTel goroutine → Pipeline 2 (bottom) -->
  <polyline points="434,187 468,187 468,230 488,230" fill="none" stroke="#0284c7" stroke-width="2" marker-end="url(#ah)"/>

  <!-- Pipeline 1: ECS path -->
  <rect x="490" y="78" width="80" height="44" rx="6" fill="#8b5cf6"/>
  <text x="530" y="98" text-anchor="middle" fill="white" font-weight="700" font-size="9">Batch</text>
  <text x="530" y="112" text-anchor="middle" fill="#ddd6fe" font-size="7">logs/es</text>

  <line x1="570" y1="100" x2="598" y2="100" stroke="#8b5cf6" stroke-width="1.5" marker-end="url(#ah)"/>

  <rect x="600" y="78" width="80" height="44" rx="6" fill="#dc2626"/>
  <text x="640" y="98" text-anchor="middle" fill="white" font-weight="700" font-size="9">ES Export</text>
  <text x="640" y="112" text-anchor="middle" fill="#fecaca" font-size="7">auto ECS</text>

  <line x1="680" y1="100" x2="708" y2="100" stroke="#dc2626" stroke-width="1.5" marker-end="url(#ah)"/>

  <rect x="710" y="68" width="220" height="68" rx="8" fill="#fef3c7" stroke="#f59e0b" stroke-width="2"/>
  <text x="820" y="88" text-anchor="middle" fill="#92400e" font-weight="700" font-size="10">Elasticsearch</text>
  <text x="820" y="104" text-anchor="middle" fill="#92400e" font-size="8">logs-akamai.siem-default</text>
  <text x="820" y="118" text-anchor="middle" fill="#92400e" font-size="8">Ingest pipeline → ECS → Kibana</text>
  <text x="820" y="130" text-anchor="middle" fill="#92400e" font-size="7">Body auto-mapped to "message"</text>

  <!-- Pipeline 2: OTel path -->
  <rect x="490" y="208" width="80" height="44" rx="6" fill="#8b5cf6"/>
  <text x="530" y="228" text-anchor="middle" fill="white" font-weight="700" font-size="9">Batch</text>
  <text x="530" y="242" text-anchor="middle" fill="#ddd6fe" font-size="7">logs/otlp</text>

  <line x1="570" y1="230" x2="598" y2="230" stroke="#8b5cf6" stroke-width="1.5" marker-end="url(#ah)"/>

  <rect x="600" y="208" width="80" height="44" rx="6" fill="#0284c7"/>
  <text x="640" y="228" text-anchor="middle" fill="white" font-weight="700" font-size="9">OTLP/HTTP</text>
  <text x="640" y="242" text-anchor="middle" fill="#bae6fd" font-size="7">Exporter</text>

  <line x1="680" y1="230" x2="708" y2="230" stroke="#0284c7" stroke-width="1.5" marker-end="url(#ah)"/>

  <rect x="710" y="208" width="220" height="44" rx="8" fill="#0c4a6e" stroke="#0284c7" stroke-width="2"/>
  <text x="820" y="228" text-anchor="middle" fill="white" font-weight="700" font-size="10">Any OTel Backend</text>
  <text x="820" y="242" text-anchor="middle" fill="#7dd3fc" font-size="8">Structured OTel attributes</text>

  <!-- Best For -->
  <rect x="20" y="290" width="450" height="110" rx="8" fill="#faf5ff" stroke="#7c3aed" stroke-width="1"/>
  <text x="245" y="310" text-anchor="middle" fill="#7c3aed" font-weight="700" font-size="12">Best For</text>
  <text x="30" y="328" fill="#581c87" font-size="10">Multi-backend deployments (Elasticsearch + OTLP)</text>
  <text x="30" y="344" fill="#581c87" font-size="10">Single API connection — no duplicate calls or cursor drift</text>
  <text x="30" y="360" fill="#581c87" font-size="10">Each pipeline receives its native format, clean separation</text>
  <text x="30" y="376" fill="#581c87" font-size="10">Zero EPS overhead vs OTel-only (parallel goroutines)</text>
  <text x="30" y="392" fill="#581c87" font-size="10">ES exporter auto-detects ECS mode from context metadata</text>

  <!-- Trade-offs -->
  <rect x="490" y="290" width="440" height="110" rx="8" fill="#fffbeb" stroke="#d97706" stroke-width="1"/>
  <text x="710" y="310" text-anchor="middle" fill="#d97706" font-weight="700" font-size="12">Trade-offs</text>
  <text x="500" y="328" fill="#92400e" font-size="10">Slowest-wins cursor: if one backend is slow, both wait</text>
  <text x="500" y="344" fill="#92400e" font-size="10">RSS = ECS + OTel combined (~+1.5 MB vs OTel-only)</text>
  <text x="500" y="360" fill="#92400e" font-size="10">CPU = OTel cost (4x vs raw-only), OTel goroutine dominates</text>
  <text x="500" y="376" fill="#92400e" font-size="10">Two receiver instances required (credentials must match)</text>
  <text x="500" y="392" fill="#92400e" font-size="10">Mitigate stalls with sending_queue on each exporter</text>
</svg>
